<svg width="25" height="25" viewBox="0 0 25 25" fill="none" xmlns="http://www.w3.org/2000/svg">
<path d="M6.75258 16.7342C11.2221 18.4785 15.0257 18.8182 19.3359 16.1032C19.3043 16.1506 18.4517 17.4138 16.2096 18.0611C16.6833 18.7085 17.3307 19.4506 17.3307 19.4506C18.7675 19.4506 20.1728 19.04 21.3885 18.2506C22.3359 17.619 22.8728 16.5295 22.7622 15.3927C22.5728 13.4506 22.1148 11.5558 21.4043 9.74009C20.5043 7.37169 18.3412 5.72956 15.8307 5.4927C15.6096 5.47691 15.4517 5.47691 15.357 5.47691L15.1044 5.72952C17.9939 6.55058 19.4307 7.82952 19.4623 7.87691C15.0254 5.63478 9.78333 5.60323 5.31488 7.78217C5.31488 7.78217 6.73594 6.37691 9.87802 5.63478L9.68855 5.44531C9.35696 5.44531 9.04116 5.47691 8.70961 5.52425C6.38855 5.91898 4.44647 7.51372 3.60961 9.70845C2.88328 11.6032 2.40961 13.5927 2.23594 15.6137C2.1412 16.6874 2.64647 17.7453 3.53067 18.3611C4.69908 19.1348 6.08855 19.5453 7.49381 19.5453C7.49381 19.5453 8.06222 18.8032 8.63067 18.14C6.49908 17.5085 5.63067 16.2453 5.61488 16.1979L6.01603 16.4028C6.25585 16.5253 6.5017 16.6363 6.75258 16.7342ZM9.23067 15.3611C8.20435 15.3295 7.39908 14.4611 7.43067 13.419C7.46227 12.44 8.25174 11.6506 9.23067 11.619C10.257 11.6506 11.0623 12.519 11.0307 13.5611C10.9833 14.5401 10.2096 15.3296 9.23067 15.3611ZM15.6728 15.3611C14.6464 15.3295 13.8412 14.4611 13.8728 13.419C13.9043 12.44 14.6938 11.6506 15.6728 11.619C16.6991 11.6506 17.5043 12.519 17.4728 13.5611C17.4412 14.5401 16.6517 15.3296 15.6728 15.3611Z" fill="white"/>
</svg>
