<svg width="22" height="17" viewBox="0 0 22 17" fill="none" xmlns="http://www.w3.org/2000/svg">
<path d="M19.248 0.203125H2.74805C2.01894 0.203847 1.31992 0.47226 0.804365 0.949469C0.288809 1.42668 -0.00117319 2.0737 -0.00195312 2.74858V13.6577C-0.00117319 14.3325 0.288809 14.9796 0.804365 15.4568C1.31992 15.934 2.01894 16.2024 2.74805 16.2031H19.248C19.9772 16.2024 20.6762 15.934 21.1917 15.4568C21.7073 14.9796 21.9973 14.3325 21.998 13.6577V2.74858C21.9973 2.0737 21.7073 1.42668 21.1917 0.949469C20.6762 0.47226 19.9772 0.203847 19.248 0.203125ZM18.5517 4.41358L11.4803 9.50449C11.3424 9.60371 11.1727 9.65758 10.998 9.65758C10.8234 9.65758 10.6537 9.60371 10.5158 9.50449L3.44439 4.41358C3.3613 4.3555 3.29152 4.28272 3.23909 4.19947C3.18665 4.11621 3.15262 4.02414 3.13896 3.92861C3.12531 3.83307 3.1323 3.73598 3.15953 3.64296C3.18677 3.54995 3.2337 3.46288 3.2976 3.3868C3.36151 3.31072 3.44111 3.24716 3.53179 3.1998C3.62246 3.15245 3.7224 3.12224 3.82579 3.11095C3.92919 3.09965 4.03398 3.10749 4.13407 3.134C4.23416 3.16052 4.32757 3.20518 4.40885 3.2654L10.998 8.00903L17.5872 3.2654C17.752 3.15023 17.9591 3.09971 18.1638 3.12478C18.3685 3.14985 18.5543 3.24849 18.681 3.39936C18.8078 3.55024 18.8652 3.74122 18.841 3.93102C18.8168 4.12081 18.7129 4.29416 18.5517 4.41358Z" fill="white"/>
</svg>
