<svg width="33" height="33" viewBox="0 0 33 33" fill="none" xmlns="http://www.w3.org/2000/svg">
<g clip-path="url(#clip0_845_4986)">
<path d="M16.1609 17.4429C18.2939 17.4429 20.023 15.7138 20.023 13.5808C20.023 11.4479 18.2939 9.71875 16.1609 9.71875C14.0279 9.71875 12.2988 11.4479 12.2988 13.5808C12.2988 15.7138 14.0279 17.4429 16.1609 17.4429Z" fill="white"/>
<path d="M24.9882 13.5778C24.9906 15.6947 24.2262 17.7409 22.8365 19.3378C22.35 18.7773 21.7551 18.3212 21.0875 17.9971C23.4682 15.3449 23.3223 11.2841 20.7573 8.80963C18.1923 6.3352 14.1289 6.3352 11.5639 8.80963C8.99896 11.2841 8.85301 15.3449 11.2337 17.9971C10.5661 18.3212 9.97118 18.7773 9.48475 19.3378C6.92807 16.3746 6.6289 12.0813 8.74991 8.79221C10.8709 5.50309 14.9052 4.00424 18.6592 5.1106C22.4133 6.21695 24.9899 9.66407 24.9882 13.5778Z" fill="white"/>
<path d="M29.4018 13.5789C29.4007 17.7684 27.4156 21.7099 24.0501 24.2051L24.0666 24.1278C24.2654 23.2158 24.2275 22.268 23.9563 21.3747C27.116 18.2204 28.0636 13.4728 26.3568 9.34715C24.6499 5.22152 20.6252 2.53101 16.1604 2.53101C11.6957 2.53101 7.67089 5.22152 5.96407 9.34715C4.25726 13.4728 5.20479 18.2204 8.36455 21.3747C8.09338 22.268 8.05539 23.2158 8.25421 24.1278L8.27076 24.2051C3.26218 20.4892 1.52541 13.782 4.10104 8.10223C6.67668 2.42243 12.8665 -0.690238 18.9618 0.62917C25.0571 1.94858 29.4056 7.34237 29.4018 13.5789Z" fill="white"/>
<path d="M18.6736 19.6484H13.6463C12.6449 19.6484 11.6972 20.1018 11.0688 20.8815C10.4404 21.6613 10.1988 22.6836 10.4116 23.6622L12.1092 31.4691C12.2195 31.9763 12.6683 32.338 13.1873 32.3381H19.1327C19.6517 32.338 20.1005 31.9763 20.2107 31.4691L21.9084 23.6622C22.1212 22.6836 21.8796 21.6613 21.2512 20.8815C20.6227 20.1018 19.6751 19.6484 18.6736 19.6484ZM12.5903 24.7475L12.3145 23.644C12.2615 23.451 12.3173 23.2444 12.4602 23.1043C12.6031 22.9641 12.8107 22.9123 13.0026 22.9689C13.1946 23.0256 13.3409 23.1817 13.3848 23.377L13.6607 24.4804C13.7343 24.776 13.5545 25.0753 13.259 25.1491C13.2153 25.16 13.1705 25.1655 13.1255 25.1657C12.8723 25.1656 12.6516 24.9932 12.5903 24.7475ZM14.0866 28.4595C14.0429 28.4703 13.9981 28.4759 13.9531 28.476C13.7001 28.4757 13.4797 28.3033 13.4185 28.0578L13.1255 26.8898C13.069 26.6957 13.1231 26.4861 13.2667 26.3437C13.4103 26.2014 13.6203 26.1489 13.814 26.2071C14.0077 26.2653 14.154 26.4248 14.1953 26.6228L14.4877 27.7908C14.5614 28.0862 14.3819 28.3854 14.0866 28.4595ZM19.1945 26.8898L18.9026 28.0578C18.8413 28.3037 18.6203 28.4762 18.3669 28.476C18.3217 28.4759 18.2767 28.4704 18.2328 28.4595C17.9373 28.3857 17.7575 28.0863 17.8312 27.7908L18.1236 26.6228C18.1649 26.4248 18.3112 26.2653 18.5049 26.2071C18.6985 26.1489 18.9085 26.2014 19.0521 26.3437C19.1957 26.4861 19.2499 26.6957 19.1934 26.8898H19.1945ZM20.0061 23.644L19.7302 24.7475C19.6689 24.9934 19.4479 25.1659 19.1945 25.1657C19.1493 25.1656 19.1043 25.16 19.0604 25.1491C18.7649 25.0753 18.5851 24.776 18.6587 24.4804L18.9346 23.377C19.0139 23.0879 19.3094 22.915 19.6002 22.9876C19.8911 23.0601 20.0708 23.3516 20.005 23.644H20.0061Z" fill="white"/>
</g>
<defs>
<clipPath id="clip0_845_4986">
<rect width="32" height="32" fill="white" transform="translate(0.160156 0.335938)"/>
</clipPath>
</defs>
</svg>
