<svg width="32" height="33" viewBox="0 0 32 33" fill="none" xmlns="http://www.w3.org/2000/svg">
<g clip-path="url(#clip0_845_5065)">
<path d="M22.7314 9.17188C20.9068 9.55286 18.9519 9.77838 16.9375 9.83201V15.3956H23.5316C23.4708 13.2042 23.1974 11.0974 22.7314 9.17188Z" fill="white"/>
<path d="M6.59232 15.3945C6.65414 13.0556 6.9468 10.7984 7.44836 8.72664C5.80586 8.26559 4.30306 7.66952 2.99978 6.95312C1.21477 9.41628 0.175958 12.3237 0 15.3945H6.59232Z" fill="white"/>
<path d="M6.59232 17.2734H0C0.175958 20.3442 1.21477 23.2517 2.99972 25.7148C4.303 24.9985 5.80586 24.4024 7.44836 23.9413C6.9468 21.8695 6.65408 19.6123 6.59232 17.2734Z" fill="white"/>
<path d="M18.6962 1.4168C18.1229 0.931807 17.5342 0.605082 16.9375 0.4375V7.95662C18.7786 7.90536 20.5598 7.70346 22.2202 7.36592C21.9155 6.43457 21.5613 5.55978 21.1595 4.75612C20.4375 3.31233 19.6087 2.18876 18.6962 1.4168Z" fill="white"/>
<path d="M7.95299 25.7422C6.5804 26.1277 5.319 26.6137 4.21094 27.1911C4.3597 27.3523 4.51122 27.5116 4.66724 27.6677C6.46976 29.4702 8.62601 30.7903 10.9795 31.5636C10.3202 30.7844 9.71051 29.8433 9.16382 28.75C8.70121 27.8247 8.2966 26.8162 7.95299 25.7422Z" fill="white"/>
<path d="M10.84 4.75612C10.4382 5.55978 10.084 6.43457 9.7793 7.36592C11.4397 7.70346 13.2209 7.90536 15.062 7.95662V0.4375C14.4653 0.605144 13.8766 0.931807 13.3033 1.4168C12.3907 2.18876 11.562 3.31233 10.84 4.75612Z" fill="white"/>
<path d="M25.4068 17.2734C25.345 19.6123 25.0523 21.8695 24.5508 23.9413C26.1933 24.4024 27.6961 24.9985 28.9994 25.7148C30.7844 23.2517 31.8231 20.3443 31.9991 17.2734H25.4068Z" fill="white"/>
<path d="M24.048 6.92292C25.4206 6.53744 26.682 6.05138 27.79 5.474C27.6412 5.3128 27.4898 5.15347 27.3337 4.99745C25.5313 3.19499 23.3749 1.8749 21.0215 1.10156C21.6807 1.88078 22.2904 2.82182 22.8371 3.91514C23.2997 4.84037 23.7044 5.84898 24.048 6.92292Z" fill="white"/>
<path d="M21.1595 27.9115C21.5613 27.1078 21.9155 26.233 22.2202 25.3016C20.5598 24.9641 18.7786 24.7622 16.9375 24.7109V32.2301C17.5343 32.0625 18.1229 31.7358 18.6962 31.2508C19.6088 30.4788 20.4376 29.3553 21.1595 27.9115Z" fill="white"/>
<path d="M24.5508 8.72658C25.0523 10.7984 25.345 13.0556 25.4068 15.3945H31.9991C31.8232 12.3237 30.7844 9.41622 28.9994 6.95312C27.6961 7.66946 26.1933 8.26553 24.5508 8.72658Z" fill="white"/>
<path d="M16.9375 17.2734V22.837C18.9519 22.8906 20.9067 23.1162 22.7314 23.4972C23.1974 21.5716 23.4708 19.4648 23.5316 17.2734H16.9375Z" fill="white"/>
<path d="M15.0628 15.3956V9.83201C13.0484 9.77838 11.0936 9.55286 9.2689 9.17188C8.80291 11.0975 8.52951 13.2042 8.46875 15.3956H15.0628Z" fill="white"/>
<path d="M7.95299 6.92292C8.29653 5.84892 8.70121 4.84037 9.16382 3.91514C9.71051 2.82182 10.3202 1.88071 10.9795 1.10156C8.62607 1.8749 6.46976 3.19499 4.66724 4.99751C4.51122 5.15353 4.3597 5.31286 4.21094 5.47407C5.319 6.05138 6.5804 6.53744 7.95299 6.92292Z" fill="white"/>
<path d="M24.048 25.7422C23.7044 26.8162 23.2997 27.8247 22.8371 28.75C22.2904 29.8433 21.6807 30.7844 21.0215 31.5636C23.3749 30.7903 25.5312 29.4702 27.3337 27.6677C27.4897 27.5117 27.6412 27.3524 27.79 27.1911C26.6819 26.6137 25.4206 26.1277 24.048 25.7422Z" fill="white"/>
<path d="M15.0628 17.2734H8.46875C8.52951 19.4649 8.80291 21.5716 9.2689 23.4972C11.0936 23.1162 13.0484 22.8906 15.0628 22.837V17.2734Z" fill="white"/>
<path d="M13.3033 31.2508C13.8766 31.7357 14.4653 32.0624 15.062 32.2301V24.7109C13.2209 24.7622 11.4397 24.9641 9.7793 25.3016C10.084 26.233 10.4382 27.1078 10.84 27.9115C11.562 29.3553 12.3907 30.4787 13.3033 31.2508Z" fill="white"/>
</g>
<defs>
<clipPath id="clip0_845_5065">
<rect width="32" height="32" fill="white" transform="translate(0 0.335938)"/>
</clipPath>
</defs>
</svg>
