<svg width="33" height="33" viewBox="0 0 33 33" fill="none" xmlns="http://www.w3.org/2000/svg">
<g clip-path="url(#clip0_845_5013)">
<path d="M32.214 8.70994C32.0461 7.30874 30.7256 5.96512 29.344 5.78511C20.919 4.7383 12.3997 4.7383 3.97747 5.78511C2.59471 5.96473 1.27421 7.30874 1.10624 8.70994C0.511462 13.8453 0.511462 18.8245 1.10624 23.9587C1.27421 25.3599 2.59471 26.7047 3.97747 26.8835C12.3997 27.9303 20.9194 27.9303 29.344 26.8835C30.7256 26.7051 32.0461 25.3599 32.214 23.9587C32.8089 18.825 32.8089 13.8453 32.214 8.70994ZM13.9933 21.6686V11.0016L21.9934 16.3353L13.9933 21.6686Z" fill="white"/>
</g>
<defs>
<clipPath id="clip0_845_5013">
<rect width="32" height="32" fill="white" transform="translate(0.660156 0.335938)"/>
</clipPath>
</defs>
</svg>
